<svg xmlns="http://www.w3.org/2000/svg" viewBox="0 0 64 64">
  <rect width="64" height="64" rx="15" fill="#2d4a3e"/>
  <path
    d="M14 12h36a6 6 0 0 1 6 6v23a6 6 0 0 1-6 6H33l-11 8v-8h-8a6 6 0 0 1-6-6V18a6 6 0 0 1 6-6Z"
    fill="#faf6eb"
  />
  <path d="M19 37V30M29 37V24M39 37V19M17 39h27" fill="none" stroke="#2d4a3e" stroke-width="4" stroke-linecap="round"/>
  <circle cx="48" cy="16" r="7" fill="#bc6848"/>
  <path d="M48 12v8M45.5 14h3.7a1.8 1.8 0 0 1 0 3.6H46" fill="none" stroke="#faf6eb" stroke-width="1.8" stroke-linecap="round"/>
</svg>
